<svg xmlns="http://www.w3.org/2000/svg" viewBox="0 0 512 512">
  <defs>
    <linearGradient id="bg" x1="70" y1="50" x2="450" y2="470" gradientUnits="userSpaceOnUse">
      <stop stop-color="#ff6fb1"/>
      <stop offset="0.52" stop-color="#ec4899"/>
      <stop offset="1" stop-color="#be185d"/>
    </linearGradient>
    <linearGradient id="cup" x1="145" y1="160" x2="364" y2="390" gradientUnits="userSpaceOnUse">
      <stop stop-color="#fff5fb"/>
      <stop offset="1" stop-color="#ffd1e7"/>
    </linearGradient>
  </defs>
  <rect width="512" height="512" rx="112" fill="url(#bg)"/>
  <path d="M132 202c0-31 25-56 56-56h136c31 0 56 25 56 56v122c0 66-53 119-119 119h-10c-66 0-119-53-119-119V202Z" fill="url(#cup)"/>
  <path d="M132 212h248v37H132v-37Z" fill="#ff8abf"/>
  <path d="M184 145c0-38 30-69 68-69 12 0 24 3 34 9-22 9-37 31-37 56 0 34 27 61 61 61h28c-12 20-34 33-59 33h-26c-38 0-69-31-69-69v-21Z" fill="#fff7fb"/>
  <path d="M256 112c28 27 44 56 44 87 0 40-27 73-60 73-32 0-58-26-58-58 0-25 16-48 45-68 12-9 22-20 29-34Z" fill="#f43f8f"/>
  <path d="M252 157c13 18 20 34 20 50 0 21-14 38-32 38-17 0-31-14-31-31 0-15 10-28 26-40 7-5 13-10 17-17Z" fill="#fff1f7"/>
  <path d="M184 312h144" stroke="#db2777" stroke-width="28" stroke-linecap="round"/>
  <path d="M206 360h100" stroke="#f472b6" stroke-width="24" stroke-linecap="round"/>
</svg>
